<?xml version="1.0" encoding="UTF-8"?><svg id="Capa_1" xmlns="http://www.w3.org/2000/svg" viewBox="0 0 492.24 491.9"><defs><style>.cls-1{fill:#20599e;}.cls-1,.cls-2{stroke-width:0px;}.cls-2{fill:#007cf7;}</style></defs><path class="cls-2" d="M259.99,284.76c-1.26,1.73-2.39,3.58-3.35,5.58l-70.68,147.89c-8.54,17.87-.98,39.27,16.89,47.81l4.91,2.35c17.87,8.54,39.27.98,47.81-16.89l70.68-147.89c.96-2,1.68-4.05,2.24-6.11l-68.5-32.74Z"/><path class="cls-1" d="M227.28,350.55l121.39,58.02c17.87,8.54,39.27.98,47.81-16.89l2.35-4.91c8.54-17.87.98-39.27-16.89-47.81l-121.39-58.02-33.27,69.61Z"/><path class="cls-2" d="M174.4,319.88c-2.07-.56-4.11-1.28-6.11-2.24L20.4,246.96c-17.87-8.54-25.43-29.95-16.89-47.81l2.35-4.91c8.54-17.87,29.95-25.43,47.81-16.89l147.89,70.68c2,.96,3.85,2.09,5.58,3.35l-32.74,68.5Z"/><path class="cls-1" d="M206.77,250.96l-58.02,121.39c-8.54,17.87-29.95,25.43-47.81,16.89l-4.91-2.35c-17.87-8.54-25.43-29.95-16.89-47.81l58.02-121.39,69.61,33.27Z"/><path class="cls-2" d="M228.94,207.14c1.26-1.73,2.39-3.58,3.35-5.58l70.68-147.89c8.54-17.87.98-39.27-16.89-47.81l-4.91-2.35c-17.87-8.54-39.27-.98-47.81,16.89l-70.68,147.89c-.96,2-1.68,4.05-2.24,6.11l68.5,32.74Z"/><path class="cls-1" d="M261.64,141.35l-121.39-58.02c-17.87-8.54-39.27-.98-47.81,16.89l-2.35,4.91c-8.54,17.87-.98,39.27,16.89,47.81l121.39,58.02,33.27-69.61Z"/><path class="cls-2" d="M318.36,164.36c2.06.57,4.11,1.31,6.1,2.27l147.53,71.42c17.82,8.63,25.28,30.07,16.65,47.9l-2.37,4.9c-8.63,17.82-30.07,25.28-47.9,16.65l-147.53-71.42c-2-.97-3.84-2.11-5.57-3.38l33.08-68.34Z"/><path class="cls-1" d="M285.65,233.12l58.62-121.09c8.63-17.82,30.07-25.28,47.9-16.65l4.9,2.37c17.82,8.63,25.28,30.07,16.65,47.9l-58.62,121.09-69.44-33.62Z"/></svg>