<svg
        id="prefix__Capa_1"
        xmlns="http://www.w3.org/2000/svg"
        x="0"
        y="0"
        viewBox="0 0 1000 300"
        xmlSpace="preserve"
        
      >
        <style>{".prefix__st0{fill:#271e4b}.prefix__st3{fill:none}"}</style>
        <path
          className="prefix__st0"
          d="M306.69 96.02c0-3.51 1.21-6.44 3.64-8.8 2.43-2.36 5.53-3.54 9.31-3.54 3.77 0 6.81 1.18 9.1 3.54 2.29 2.36 3.44 5.29 3.44 8.8 0 3.51-1.15 6.44-3.44 8.8-2.29 2.36-5.33 3.54-9.1 3.54-3.78 0-6.88-1.18-9.31-3.54-2.43-2.35-3.64-5.29-3.64-8.8zm23.46 123.41c-.95.4-2.26.77-3.94 1.11-1.69.33-3.61.51-5.77.51-3.91 0-6.81-.74-8.7-2.23-1.89-1.48-2.83-3.98-2.83-7.49v-85.57c1.08-.27 2.46-.61 4.15-1.01 1.68-.4 3.61-.61 5.77-.61 3.91 0 6.78.74 8.6 2.23 1.82 1.49 2.73 4.05 2.73 7.69v85.37zM417.45 143.97c-3.71-3.1-8.73-4.65-15.07-4.65-4.72 0-8.94.61-12.64 1.82-3.71 1.21-6.91 2.56-9.61 4.05v74.25c-.94.4-2.26.77-3.94 1.11-1.69.33-3.54.51-5.56.51-3.91 0-6.81-.74-8.7-2.23-1.89-1.48-2.83-3.98-2.83-7.49v-66.76c0-3.1.61-5.59 1.82-7.48 1.21-1.89 3.24-3.77 6.07-5.66 3.77-2.29 8.7-4.38 14.77-6.27 6.07-1.89 12.95-2.83 20.63-2.83 13.08 0 23.33 2.93 30.75 8.8 7.42 5.87 11.13 14.74 11.13 26.6v61.7c-.94.4-2.29.77-4.05 1.11-1.75.33-3.64.51-5.66.51-3.91 0-6.81-.74-8.7-2.23-1.89-1.48-2.83-3.98-2.83-7.49v-52.8c-.02-6.61-1.87-11.47-5.58-14.57zM584.95 143.46c-3.3-2.76-7.79-4.15-13.45-4.15-3.78 0-7.38.71-10.82 2.12a34.795 34.795 0 00-9.41 5.77c.27 1.08.47 2.23.61 3.44.13 1.21.2 2.43.2 3.64v65.14c-.95.4-2.29.77-4.05 1.11-1.75.33-3.58.51-5.46.51-3.91 0-6.81-.74-8.7-2.23-1.89-1.48-2.83-3.98-2.83-7.49V156.5c0-5.93-1.69-10.28-5.06-13.05-3.37-2.76-7.89-4.15-13.55-4.15-3.78 0-7.35.61-10.72 1.82-3.37 1.21-6.21 2.56-8.5 4.05v74.25c-.94.4-2.26.77-3.94 1.11-1.69.33-3.54.51-5.56.51-3.91 0-6.81-.74-8.7-2.23-1.89-1.48-2.83-3.98-2.83-7.49v-66.76c0-3.1.61-5.59 1.82-7.48 1.21-1.89 3.24-3.77 6.07-5.66 3.91-2.56 8.83-4.72 14.77-6.47 5.93-1.75 11.94-2.63 18-2.63 6.34 0 12.04.88 17.09 2.63 5.06 1.75 9.21 4.32 12.44 7.69 3.77-2.97 8.26-5.43 13.45-7.38 5.19-1.95 11.23-2.93 18.11-2.93 5.26 0 10.18.64 14.77 1.92 4.58 1.28 8.53 3.31 11.83 6.07 3.3 2.77 5.9 6.24 7.79 10.42 1.89 4.18 2.83 9.17 2.83 14.97v63.73c-1.08.4-2.46.77-4.15 1.11-1.69.33-3.54.51-5.56.51-3.91 0-6.81-.74-8.7-2.23-1.89-1.48-2.83-3.98-2.83-7.49v-54.82c0-5.94-1.65-10.29-4.96-13.06zM729.91 172.5c0 7.69-1.15 14.63-3.44 20.84-2.29 6.21-5.5 11.46-9.61 15.78-4.12 4.32-9.14 7.66-15.07 10.01-5.94 2.36-12.54 3.54-19.83 3.54s-13.89-1.18-19.83-3.54c-5.94-2.36-10.96-5.7-15.07-10.01-4.12-4.32-7.32-9.58-9.61-15.78-2.29-6.2-3.44-13.15-3.44-20.84s1.14-14.63 3.44-20.84c2.29-6.2 5.53-11.46 9.71-15.78 4.18-4.31 9.24-7.65 15.17-10.01 5.93-2.36 12.47-3.54 19.62-3.54s13.69 1.18 19.62 3.54c5.93 2.36 10.99 5.73 15.17 10.12 4.18 4.38 7.42 9.64 9.71 15.78 2.31 6.13 3.46 13.04 3.46 20.73zm-47.95-33.18c-8.09 0-14.5 2.9-19.22 8.7-4.72 5.8-7.08 13.96-7.08 24.48s2.29 18.65 6.88 24.38c4.58 5.73 11.06 8.6 19.42 8.6 8.36 0 14.83-2.86 19.42-8.6 4.58-5.73 6.88-13.86 6.88-24.38 0-10.38-2.33-18.51-6.98-24.38-4.65-5.87-11.1-8.8-19.32-8.8zM797.88 122.32c6.34 0 12.27 1.05 17.8 3.14 5.53 2.09 10.32 5.19 14.36 9.31 4.05 4.12 7.21 9.31 9.51 15.58 2.29 6.27 3.44 13.59 3.44 21.95 0 8.5-1.18 15.92-3.54 22.25-2.36 6.34-5.7 11.57-10.01 15.68-4.32 4.12-9.48 7.22-15.48 9.31-6 2.09-12.64 3.14-19.93 3.14-7.28 0-13.73-.88-19.32-2.63-5.6-1.75-10.15-3.77-13.66-6.07-2.83-1.89-4.86-3.77-6.07-5.66-1.21-1.89-1.82-4.31-1.82-7.28V88.54c.94-.27 2.29-.61 4.05-1.01 1.75-.4 3.64-.61 5.66-.61 3.91 0 6.78.74 8.6 2.23 1.82 1.49 2.73 3.98 2.73 7.49v31.96c2.96-1.62 6.4-3.07 10.32-4.35 3.92-1.28 8.37-1.93 13.36-1.93zm-3.44 17c-4.32 0-8.16.71-11.53 2.12-3.37 1.42-6.27 3.07-8.7 4.96v53.81c1.89 1.35 4.52 2.56 7.89 3.64s7.28 1.62 11.73 1.62c8.23 0 14.9-2.7 20.03-8.09 5.12-5.39 7.69-13.76 7.69-25.08 0-11.46-2.53-19.83-7.59-25.09s-11.57-7.89-19.52-7.89zM866.05 125.36c.94-.27 2.29-.57 4.05-.91 1.75-.34 3.64-.51 5.67-.51 3.91 0 6.78.74 8.6 2.23 1.82 1.49 2.73 4.05 2.73 7.69v49.97c0 7.82 2.05 13.39 6.17 16.69 4.11 3.31 9.81 4.96 17.09 4.96 4.72 0 8.7-.47 11.94-1.42 3.24-.94 5.8-1.95 7.69-3.04v-75.66a95.5 95.5 0 014.15-.91c1.68-.34 3.54-.51 5.56-.51 3.91 0 6.81.74 8.7 2.23 1.89 1.49 2.83 4.05 2.83 7.69v68.18c0 2.97-.47 5.4-1.42 7.28-.95 1.89-2.83 3.71-5.66 5.46-3.51 2.02-8.13 3.84-13.86 5.46-5.73 1.62-12.44 2.43-20.13 2.43-13.89 0-24.72-3.07-32.47-9.21-7.76-6.13-11.63-15.88-11.63-29.23v-58.87z"
        />
        <g>
          <path
            d="M299.76 100.34999999999998"
            fill="red"
            stroke="#000"
            strokeWidth="0.25"
            strokeMiterlimit="10"
          />
        </g>
        <g>
          <path
            d="M44.43 210.6v-77.42l80.99 47.33-68.62 37.43c-5.57 3.04-12.37-1-12.37-7.34z"
            fill="#92c4fc"
          />
        </g>
        <path
          d="M211.12 134.42L193.33 124V77.22h-34.36v26.65l-28.69-16.8-85.67 46.29 80.84 47.34.16-.09 73.13 42.44c5.27 3.06 11.87-.74 11.87-6.84v-81.53l.51-.26z"
          fill="#2663ea"
        />
      </svg>